<?xml version="1.0" encoding="UTF-8"?>
<svg width="59px" height="60px" viewBox="0 0 59 60" version="1.1" xmlns="http://www.w3.org/2000/svg" xmlns:xlink="http://www.w3.org/1999/xlink">
    <!-- Generator: Sketch 59.1 (86144) - https://sketch.com -->
    <title>typewriter (2)</title>
    <desc>Created with Sketch.</desc>
    <defs>
        <linearGradient x1="14.5070348%" y1="16.9447113%" x2="100%" y2="69.2419056%" id="linearGradient-1">
            <stop stop-color="#F09819" offset="0%"></stop>
            <stop stop-color="#FF5858" offset="100%"></stop>
        </linearGradient>
    </defs>
    <g id="Welcome" stroke="none" stroke-width="1" fill="none" fill-rule="evenodd">
        <g id="Projects" transform="translate(-173.000000, -906.000000)" fill-rule="nonzero">
            <g id="Card-Copy-6" transform="translate(150.000000, 891.000000)">
                <g id="typewriter-(2)" transform="translate(23.000000, 15.000000)">
                    <path d="M57.0245451,22.5 L53.4908034,22.5 C52.675904,22.5 54.0293414,23.1565825 54.0293414,23.9662429 L54.0293414,33.0337571 C54.0293414,33.8435877 52.4148786,34.5 53.2297779,34.5 L57.0245451,34.5 C57.8394016,34.5 58.5,33.8435877 58.5,33.0337571 L58.5,23.9662429 C58.5,23.1565825 57.8394017,22.5 57.0245451,22.5 L57.0245451,22.5 Z" id="Path" fill="#344D5B"></path>
                    <path d="M6.74274313,22.5 L1.45199238,22.5 C0.650074722,22.5 0,23.1565825 0,23.9662429 L0,33.0337571 C0,33.8435877 0.650074722,34.5 1.45199238,34.5 L6.87361256,34.5 C7.67548802,34.5 4.39943916,33.8435877 4.39943916,33.0337571 L4.39943916,23.9662429 C4.39943916,23.1565825 7.54461866,22.5 6.74274313,22.5 Z" id="Path" fill="#344D5B"></path>
                    <path d="M54.5744754,22.9584253 C54.3973069,19.3711997 51.1657556,16.5 47.3530865,16.5 L11.146917,16.5 C7.32715428,16.5 4.1026966,19.3711997 3.92552812,22.9584253 L2.50818029,52.6130083 C2.31682451,56.6680652 5.50585714,60 9.63743819,60 L48.8625654,60 C52.9941032,60 56.1831359,56.6680652 55.9918233,52.6130083 L54.5744754,22.9584253 Z" id="Path" fill="url(#linearGradient-1)"></path>
                    <path d="M10.7210245,16.5 C6.8685249,16.5 3.61643234,19.3711997 3.43774546,22.9584253 L2.0082504,52.6130083 C1.81525463,56.6680652 5.03161852,60 9.19860886,60 L13.5014029,60 C19.9913228,56.8452976 26.4240506,51.8473089 31.9133064,45.2684209 C39.6039968,36.073624 43.8853276,25.6523926 44.5,16.5 L10.7210245,16.5 Z" id="Path" fill-opacity="0.04" fill="#000000"></path>
                    <path d="M44.3966816,22 L14.1033622,22 C12.9417094,22 12,22.8954281 12,24 C12,25.1045719 12.9417093,26 14.1033622,26 L44.3966815,26 C45.5583343,26 46.5,25.1045719 46.5,24 C46.5,22.8954281 45.5583344,22 44.3966816,22 Z" id="Path" fill="#344D5B"></path>
                    <path d="M42.264526,1.13686838e-13 L15.735474,1.13686838e-13 C14.7770279,1.13686838e-13 14,0.769331419 14,1.71829401 L14,23.5 L44,23.5 L44,1.71829401 C44,0.769331419 43.2229721,1.13686838e-13 42.264526,1.13686838e-13 Z" id="Path" fill="#EDEDED"></path>
                    <g id="Group" transform="translate(18.000000, 6.500000)" fill="#DBD8DD">
                        <polygon id="Path" points="0.01509024 0.0680552727 21.9628661 0.0680552727 21.9628661 1.61521152 0.01509024 1.61521152"></polygon>
                        <polygon id="Path" points="0.01509024 4.4999431 21.9628661 4.4999431 21.9628661 6.04709935 0.01509024 6.04709935"></polygon>
                        <polygon id="Path" points="0.01509024 8.93183023 21.9628661 8.93183023 21.9628661 10.4789865 0.01509024 10.4789865"></polygon>
                    </g>
                    <path d="M51.7655389,38.0373424 C51.7247392,37.176641 51.0209316,36.5 50.166569,36.5 L8.33343107,36.5 C7.47906839,36.5 6.77526096,37.176641 6.73446109,38.0373424 L6.00358407,53.4447731 C5.96495675,54.2549893 6.23960596,55.0147204 6.77678163,55.5823276 C7.33611698,56.1739502 8.12000326,56.5 8.98331666,56.5 L49.5166832,56.5 C50.3806918,56.5 51.1646216,56.1739502 51.7239569,55.5823276 C52.2603939,55.0147205 52.5350431,54.2556906 52.4964158,53.4454743 L51.7655389,38.0373424 Z" id="Path" fill-opacity="0.2" fill="#000000"></path>
                    <g id="Group" transform="translate(9.500000, 37.000000)" fill="#EDEDED">
                        <path d="M1.9153142,0.0870230386 C0.874136488,0.0870230386 0.0301312054,0.934033208 0.0301312054,1.97917077 C0.0301312054,3.02391983 0.874136488,3.87112286 1.9153142,3.87112286 C2.95649192,3.87112286 3.80054588,3.02391976 3.80054588,1.97917077 C3.80054588,0.934033208 2.95649192,0.0870230386 1.9153142,0.0870230386 L1.9153142,0.0870230386 Z" id="Path"></path>
                        <path d="M7.00535694,0.0870230386 C5.96417923,0.0870230386 5.12017395,0.934033208 5.12017395,1.97917077 C5.12017395,3.02391983 5.96417923,3.87112286 7.00535694,3.87112286 C8.04653601,3.87112286 8.89058862,3.02391976 8.89058862,1.97917077 C8.89058862,0.934033208 8.04653601,0.0870230386 7.00535694,0.0870230386 L7.00535694,0.0870230386 Z" id="Path"></path>
                        <path d="M12.0953997,0.0870230386 C11.0542206,0.0870230386 10.2102167,0.934033208 10.2102167,1.97917077 C10.2102167,3.02391983 11.0542206,3.87112286 12.0953997,3.87112286 C13.1365787,3.87112286 13.9806314,3.02391976 13.9806314,1.97917077 C13.9806314,0.934033208 13.1365787,0.0870230386 12.0953997,0.0870230386 L12.0953997,0.0870230386 Z" id="Path"></path>
                        <path d="M17.1854425,0.0870230386 C16.1442634,0.0870230386 15.3002595,0.934033208 15.3002595,1.97917077 C15.3002595,3.02391983 16.1442634,3.87112286 17.1854425,3.87112286 C18.2266216,3.87112286 19.0706742,3.02391976 19.0706742,1.97917077 C19.0706742,0.934033208 18.2266216,0.0870230386 17.1854425,0.0870230386 L17.1854425,0.0870230386 Z" id="Path"></path>
                        <path d="M22.2754852,0.0870230386 C21.2343062,0.0870230386 20.3903022,0.934033208 20.3903022,1.97917077 C20.3903022,3.02391983 21.2343062,3.87112286 22.2754852,3.87112286 C23.3166643,3.87112286 24.1607169,3.02391976 24.1607169,1.9791707 C24.1607169,0.934033208 23.3166643,0.0870230386 22.2754852,0.0870230386 Z" id="Path"></path>
                        <path d="M27.365528,0.0870230386 C26.3243489,0.0870230386 25.480345,0.934033208 25.480345,1.97917077 C25.480345,3.02391983 26.3243489,3.87112286 27.365528,3.87112286 C28.406707,3.87112286 29.2507597,3.02391976 29.2507597,1.97917077 C29.2507597,0.934033208 28.406707,0.0870230386 27.365528,0.0870230386 L27.365528,0.0870230386 Z" id="Path"></path>
                        <path d="M32.4555735,0.0870230386 C31.4143944,0.0870230386 30.5703851,0.934033208 30.5703851,1.97917077 C30.5703851,3.02391983 31.4143944,3.87112286 32.4555735,3.87112286 C33.4967472,3.87112286 34.3408052,3.02391976 34.3408052,1.97917077 C34.3408052,0.934033208 33.4967472,0.0870230386 32.4555735,0.0870230386 L32.4555735,0.0870230386 Z" id="Path"></path>
                        <path d="M37.5456162,0.0870230386 C36.5044372,0.0870230386 35.6604278,0.934033208 35.6604278,1.97917077 C35.6604278,3.02391983 36.5044372,3.87112286 37.5456162,3.87112286 C38.5867899,3.87112286 39.4308479,3.02391976 39.4308479,1.97917077 C39.4308479,0.934033208 38.5867899,0.0870230386 37.5456162,0.0870230386 L37.5456162,0.0870230386 Z" id="Path"></path>
                        <path d="M1.9153142,9.65076997 C0.874136488,9.65076997 0.0301312054,10.4977828 0.0301312054,11.5429177 C0.0301312054,12.5876668 0.874136488,13.4348698 1.9153142,13.4348698 C2.95649192,13.4348698 3.80054588,12.5876667 3.80054588,11.5429177 C3.80054588,10.4977828 2.95649192,9.65076997 1.9153142,9.65076997 L1.9153142,9.65076997 Z" id="Path"></path>
                        <path d="M7.00535694,9.65076997 C5.96417923,9.65076997 5.12017395,10.4977828 5.12017395,11.5429177 C5.12017395,12.5876668 5.96417923,13.4348698 7.00535694,13.4348698 C8.04653601,13.4348698 8.89058862,12.5876667 8.89058862,11.5429177 C8.89058862,10.4977828 8.04653601,9.65076997 7.00535694,9.65076997 Z" id="Path"></path>
                        <path d="M12.0953997,9.65076997 C11.0542206,9.65076997 10.2102167,10.4977828 10.2102167,11.5429177 C10.2102167,12.5876668 11.0542206,13.4348698 12.0953997,13.4348698 C13.1365787,13.4348698 13.9806314,12.5876667 13.9806314,11.5429177 C13.9806314,10.4977828 13.1365787,9.65076997 12.0953997,9.65076997 Z" id="Path"></path>
                        <path d="M17.1854425,9.65076997 C16.1442634,9.65076997 15.3002595,10.4977828 15.3002595,11.5429177 C15.3002595,12.5876668 16.1442634,13.4348698 17.1854425,13.4348698 C18.2266216,13.4348698 19.0706742,12.5876667 19.0706742,11.5429177 C19.0706742,10.4977828 18.2266216,9.65076997 17.1854425,9.65076997 Z" id="Path"></path>
                        <path d="M22.2754852,9.65076997 C21.2343062,9.65076997 20.3903022,10.4977828 20.3903022,11.5429177 C20.3903022,12.5876668 21.2343062,13.4348698 22.2754852,13.4348698 C23.3166643,13.4348698 24.1607169,12.5876667 24.1607169,11.5429176 C24.1607169,10.4977828 23.3166643,9.65076997 22.2754852,9.65076997 Z" id="Path"></path>
                        <path d="M27.365528,9.65076997 C26.3243489,9.65076997 25.480345,10.4977828 25.480345,11.5429177 C25.480345,12.5876668 26.3243489,13.4348698 27.365528,13.4348698 C28.406707,13.4348698 29.2507597,12.5876667 29.2507597,11.5429177 C29.2507597,10.4977828 28.406707,9.65076997 27.365528,9.65076997 Z" id="Path"></path>
                        <path d="M32.4555735,9.65076997 C31.4143944,9.65076997 30.5703851,10.4977828 30.5703851,11.5429177 C30.5703851,12.5876668 31.4143944,13.4348698 32.4555735,13.4348698 C33.4967472,13.4348698 34.3408052,12.5876667 34.3408052,11.5429177 C34.3408052,10.4977828 33.4967472,9.65076997 32.4555735,9.65076997 Z" id="Path"></path>
                        <path d="M37.5456162,9.65076997 C36.5044372,9.65076997 35.6604278,10.4977828 35.6604278,11.5429177 C35.6604278,12.5876668 36.5044372,13.4348698 37.5456162,13.4348698 C38.5867899,13.4348698 39.4308479,12.5876667 39.4308479,11.5429177 C39.4308479,10.4977828 38.5867899,9.65076997 37.5456162,9.65076997 Z" id="Path"></path>
                        <path d="M4.46033557,4.86889921 C3.41915786,4.86889921 2.57515258,5.71590667 2.57515258,6.76104694 C2.57515258,7.80579601 3.41915786,8.65299903 4.46033557,8.65299903 C5.50151329,8.65299903 6.34556725,7.80579593 6.34556725,6.76104694 C6.34556725,5.71590667 5.50151329,4.86889921 4.46033557,4.86889921 Z" id="Path"></path>
                        <path d="M9.55037831,4.86889921 C8.50919925,4.86889921 7.66519532,5.71590667 7.66519532,6.76104694 C7.66519532,7.80579601 8.50919925,8.65299903 9.55037831,8.65299903 C10.5915574,8.65299903 11.43561,7.80579593 11.43561,6.76104694 C11.43561,5.71590667 10.5915574,4.86889921 9.55037831,4.86889921 Z" id="Path"></path>
                        <path d="M14.6404211,4.86889921 C13.599242,4.86889921 12.7552381,5.71590667 12.7552381,6.76104694 C12.7552381,7.80579601 13.599242,8.65299903 14.6404211,8.65299903 C15.6816001,8.65299903 16.5256527,7.80579593 16.5256527,6.76104694 C16.5256527,5.71590667 15.6816002,4.86889921 14.6404211,4.86889921 Z" id="Path"></path>
                        <path d="M19.7304639,4.86889921 C18.6892848,4.86889921 17.8452809,5.71590667 17.8452809,6.76104694 C17.8452809,7.80579601 18.6892848,8.65299903 19.7304639,8.65299903 C20.7716429,8.65299903 21.6156955,7.80579593 21.6156955,6.76104694 C21.6156955,5.71590667 20.7716429,4.86889921 19.7304639,4.86889921 Z" id="Path"></path>
                        <path d="M24.8205066,4.86889921 C23.7793275,4.86889921 22.9353236,5.71590667 22.9353236,6.76104694 C22.9353236,7.80579601 23.7793275,8.65299903 24.8205066,8.65299903 C25.8616857,8.65299903 26.7057383,7.80579593 26.7057383,6.76104694 C26.7057383,5.71590667 25.8616857,4.86889921 24.8205066,4.86889921 Z" id="Path"></path>
                        <path d="M29.9105521,4.86889921 C28.8693704,4.86889921 28.0253664,5.71590667 28.0253664,6.76104694 C28.0253664,7.80579601 28.8693704,8.65299903 29.9105521,8.65299903 C30.9517258,8.65299903 31.7957838,7.80579593 31.7957838,6.76104694 C31.7957838,5.71590667 30.9517257,4.86889921 29.9105521,4.86889921 Z" id="Path"></path>
                        <path d="M35.0005949,4.86889921 C33.9594158,4.86889921 33.1154065,5.71590667 33.1154065,6.76104694 C33.1154065,7.80579601 33.9594158,8.65299903 35.0005949,8.65299903 C36.0417685,8.65299903 36.8858265,7.80579593 36.8858265,6.76104694 C36.8858265,5.71590667 36.0417685,4.86889921 35.0005949,4.86889921 Z" id="Path"></path>
                        <path d="M28.0766823,14.7846123 L11.3842508,14.7846123 C10.371457,14.7846123 9.55040265,15.6087665 9.55040265,16.6252233 C9.55040265,17.64168 10.371457,18.4656603 11.3842508,18.4656603 L28.0766823,18.4656603 C29.0895194,18.4656603 29.9105738,17.64168 29.9105738,16.6252233 C29.9105738,15.6087665 29.0895194,14.7846123 28.0766823,14.7846123 Z" id="Path"></path>
                    </g>
                </g>
            </g>
        </g>
    </g>
</svg>